<?xml version="1.0" encoding="UTF-8" standalone="no"?>
<!-- Created with Inkscape (http://www.inkscape.org/) -->

<svg
   width="511.99997"
   height="511.99997"
   viewBox="0 0 135.46666 135.46666"
   version="1.1"
   id="svg901"
   xmlns="http://www.w3.org/2000/svg"
   xmlns:svg="http://www.w3.org/2000/svg">
  <defs
     id="defs898">
    <clipPath
       clipPathUnits="userSpaceOnUse"
       id="clipPath3457">
      <rect
         style="opacity:1;fill:#b3b3b3;stroke-width:2.32977;-inkscape-stroke:none;stop-color:#000000"
         id="rect3459"
         width="511.99997"
         height="511.99997"
         x="14.992509"
         y="4.5634103"
         rx="99.999992"
         ry="99.999992" />
    </clipPath>
  </defs>
  <g
     id="layer1"
     transform="translate(84.857652,-62.30451)">
    <g
       id="icon-512x512"
       transform="matrix(0.26458333,0,0,0.26458333,-84.836598,62.281498)">
      <g
         id="g3204"
         transform="translate(-15.07209,-4.4764376)"
         clip-path="url(#clipPath3457)">
        <path
           id="rect24605-7"
           style="fill:#60a5fa;stroke-width:213.553;stroke-linecap:round;stop-color:#000000"
           d="M 14.992515,4.5634104 H 526.99247 V 516.55672 H 14.992515 Z" />
        <path
           style="fill:#1d4ed8;fill-opacity:1;stroke:none;stroke-width:213.553;stroke-linecap:round;stop-color:#000000"
           d="m 85.135931,366.81451 c -5.717684,-0.0201 -11.257472,0.19492 -16.607553,0.62499 -5.350077,0.43006 -10.512936,1.06685 -15.464965,1.85742 -4.952025,0.79056 -9.689473,1.74327 -14.213002,2.80467 -4.523525,1.06139 -8.82806,2.23983 -12.89268,3.48241 -3.883192,1.18709 -7.527769,2.44043 -10.964929,3.71287 l -2.86e-4,137.25985 257.943714,-8e-4 c -1.19839,-5.29903 -2.57114,-10.6927 -4.19339,-16.13468 -1.72965,-5.80193 -3.70133,-11.65141 -5.98247,-17.49991 -2.28105,-5.84851 -4.86315,-11.68928 -7.76764,-17.46476 -1.4522,-2.88774 -2.98595,-5.76032 -4.60746,-8.60737 -1.62155,-2.84704 -3.3252,-5.67144 -5.12504,-8.46285 -1.79985,-2.79141 -3.69066,-5.54671 -5.67778,-8.26753 -1.98712,-2.72082 -4.06665,-5.41937 -6.25005,-8.05465 -2.1834,-2.63528 -4.46884,-5.21517 -6.85747,-7.74996 -2.3886,-2.53479 -4.87961,-5.00835 -7.48248,-7.42769 -2.60288,-2.41935 -5.31658,-4.78328 -8.14264,-7.07224 -2.82608,-2.28895 -5.78165,-4.49895 -8.83992,-6.64253 -3.05828,-2.14359 -6.21817,-4.21198 -9.51765,-6.19529 -3.29945,-1.98329 -6.73561,-3.88918 -10.28524,-5.69723 -3.54964,-1.80804 -7.07467,-3.49443 -10.57235,-5.07225 -3.49764,-1.5778 -6.95074,-3.05134 -10.39265,-4.41012 -3.44187,-1.35879 -6.86773,-2.59903 -10.25008,-3.74998 -3.38232,-1.15098 -6.73386,-2.20578 -10.05282,-3.16015 -6.63791,-1.9087 -13.13853,-3.43546 -19.50015,-4.62497 -6.36162,-1.18951 -12.57029,-2.04741 -18.62515,-2.60741 -6.054865,-0.56 -11.960192,-0.8198 -17.677869,-0.83984 z"
           id="path1756-6" />
        <path
           id="path146-2"
           style="fill:#2563eb;fill-opacity:1;fill-rule:evenodd;stroke-width:0.759236px;paint-order:stroke fill markers;stop-color:#000000"
           d="m 158.86753,283.49499 c -3.06767,0.0494 -6.12561,0.15367 -9.16071,0.32144 -6.07025,0.33554 -12.06798,0.90194 -18,1.67856 -5.932,0.77658 -11.80692,1.77018 -17.58929,2.94638 -5.78238,1.1762 -11.48583,2.53698 -17.107133,4.07138 -5.621301,1.53439 -11.158334,3.23805 -16.607147,5.08922 -5.448803,1.85116 -10.806544,3.83768 -16.071423,5.9642 -5.264885,2.12651 -10.43047,4.38947 -15.500002,6.74991 -5.069531,2.36044 -10.030106,4.82195 -14.892854,7.37491 -4.862755,2.55295 -9.623312,5.18871 -14.267855,7.89275 -1.595053,0.92863 -3.110153,1.91392 -4.678567,2.8571 v 50.85648 c 3.43716,-1.27244 7.081088,-2.52714 10.96428,-3.71424 4.06462,-1.24258 8.369335,-2.4207 12.89286,-3.48209 4.52353,-1.0614 9.262255,-2.01298 14.21428,-2.80354 4.952029,-0.79057 10.114205,-1.42706 15.464282,-1.85712 5.35008,-0.43008 10.889464,-0.64511 16.607148,-0.62499 5.717677,0.02 11.623688,0.27929 17.678561,0.8393 6.05486,0.55999 12.26339,1.41759 18.62501,2.6071 6.36161,1.18951 12.86207,2.71623 19.49999,4.62494 3.31896,0.95437 6.67125,2.00971 10.05357,3.16068 3.38235,1.15095 6.80813,2.39117 10.24999,3.74995 3.44192,1.35878 6.89522,2.83284 10.39286,4.41065 3.49767,1.57782 7.02178,3.26333 10.57142,5.07136 3.54963,1.80805 6.98628,3.71307 10.28572,5.69636 3.29948,1.9833 6.45958,4.05276 9.51786,6.19635 3.05826,2.14358 6.01321,4.35381 8.83929,6.64276 2.82606,2.28895 5.53997,4.652 8.14285,7.07134 2.60287,2.41934 5.09354,4.89367 7.48214,7.42847 2.38864,2.53478 4.67374,5.11463 6.85714,7.74991 2.1834,2.63528 4.26288,5.33264 6.25,8.05346 1.98712,2.72082 3.87872,5.47633 5.67857,8.26775 1.79983,2.7914 3.50344,5.61713 5.125,8.46417 1.62151,2.84705 3.15495,5.71928 4.60714,8.60702 2.90449,5.77548 5.48679,11.61556 7.76785,17.46407 2.28113,5.8485 4.25252,11.69784 5.98216,17.49976 1.62305,5.44464 2.99758,10.84113 4.1964,16.14265 l 254.05357,-0.007 -3e-5,-25.60014 v -12.73196 c -14.44023,-5.95165 -28.92215,-13.66163 -33.91068,-16.41051 -8.8203,-4.86033 -18.10166,-10.2159 -27.83925,-16.10693 -9.7377,-5.89101 -19.9329,-12.31918 -30.60718,-19.33903 -10.67429,-7.01984 -21.81614,-14.6279 -33.4464,-22.87469 -11.63017,-8.24682 -23.75176,-17.14203 -36.35711,-26.71394 -12.60535,-9.57192 -25.68603,-19.82586 -39.28576,-30.82103 -6.7999,-5.49758 -13.5925,-10.58388 -20.35711,-15.26765 -6.76452,-4.68378 -13.51434,-8.96344 -20.23214,-12.87483 -6.71771,-3.91138 -13.41184,-7.44443 -20.07141,-10.62486 -6.65953,-3.18042 -13.28514,-6.00902 -19.87505,-8.49989 -6.58984,-2.49088 -13.13408,-4.65715 -19.64287,-6.49991 -6.50879,-1.84275 -12.97652,-3.37105 -19.39284,-4.60709 -6.41631,-1.23604 -12.79479,-2.16849 -19.10714,-2.83924 -6.3124,-0.67072 -12.55296,-1.08525 -18.75,-1.23213 -3.09851,-0.0731 -6.18237,-0.0686 -9.25,-0.0181 z" />
        <path
           id="path148-7"
           style="fill:#3b82f6;fill-opacity:1;fill-rule:evenodd;stroke-width:0.759236px;paint-order:stroke fill markers;stop-color:#000000"
           d="m 197.79706,134.6085 c -6.83053,0.0605 -13.5266,0.30992 -20.08595,0.73435 -6.55936,0.42433 -12.98454,1.02191 -19.27342,1.78125 -6.28888,0.7593 -12.44183,1.68498 -18.46091,2.74993 -6.01908,1.06499 -11.89847,2.27583 -17.64842,3.61714 -5.74992,1.34131 -11.37008,2.81007 -16.85155,4.39841 -5.481462,1.58829 -10.825352,3.2955 -16.039039,5.10146 -5.213695,1.80596 -10.295586,3.70875 -15.242172,5.70305 -4.946587,1.99433 -9.757332,4.08096 -14.437485,6.2343 -4.680154,2.1533 -9.22621,4.37316 -13.640612,6.65617 -4.414409,2.28297 -8.702234,4.62438 -12.851553,7.0077 -4.14933,2.38332 -8.161939,4.81116 -12.046866,7.26553 -2.148425,1.3573 -4.158821,2.73728 -6.226549,4.10931 v 138.47462 c 1.56841,-0.94318 3.068989,-1.92288 4.664054,-2.85151 4.644535,-2.70405 9.402861,-5.33758 14.265617,-7.89052 4.862745,-2.55296 9.828879,-5.02227 14.898422,-7.38271 5.069527,-2.36044 10.242906,-4.61558 15.507791,-6.74209 5.264886,-2.12652 10.621482,-4.12532 16.070296,-5.97648 5.448814,-1.85117 10.988058,-3.55148 16.609359,-5.08587 5.621307,-1.53439 11.326977,-2.90187 17.109367,-4.07807 5.78237,-1.1762 11.64612,-2.16086 17.57812,-2.93746 5.93202,-0.77659 11.92974,-1.3441 17.99998,-1.67966 6.07023,-0.33554 12.20918,-0.44379 18.40621,-0.29688 3.09853,0.0731 6.2082,0.21158 9.33592,0.41407 3.13084,0.20206 6.27086,0.46903 9.42971,0.80466 6.31236,0.67071 12.68523,1.61548 19.10154,2.85152 3.20816,0.61804 6.4242,1.3111 9.65624,2.07809 0.002,5.9e-4 0.004,-5.9e-4 0.008,0 3.22959,0.76653 6.4746,1.61054 9.72654,2.53122 3.2544,0.92138 6.5138,1.91912 9.78908,2.99996 0.002,7.9e-4 0.004,-7.8e-4 0.008,0 3.27295,1.08019 6.55895,2.23975 9.85156,3.48433 6.58991,2.49086 13.21546,5.31946 19.87499,8.49987 6.65947,3.18044 13.35259,6.71347 20.07031,10.62486 6.71771,3.91139 13.46203,8.19885 20.22656,12.88263 6.76452,4.68377 13.55162,9.76783 20.35154,15.26541 13.59972,10.99517 26.69147,21.25577 39.29681,30.82769 12.60535,9.57191 24.72128,18.45594 36.35154,26.70276 11.63017,8.24679 22.77878,15.85483 33.45308,22.87467 10.67427,7.01985 20.87167,13.45247 30.60936,19.34348 9.7376,5.89103 19.01567,11.24101 27.83587,16.10134 4.98853,2.74888 19.47384,10.47001 33.91406,16.42165 V 420.68263 187.35776 c -0.13621,0.004 -0.26241,0.0189 -0.39862,0.0227 -5.73148,0.21808 -11.61079,0.31521 -17.63292,0.28913 -6.02203,-0.0264 -12.18377,-0.17726 -18.49993,-0.46873 -6.31616,-0.29177 -12.78473,-0.71863 -19.39839,-1.29686 -6.61376,-0.57827 -13.37426,-1.3093 -20.2891,-2.19529 -6.91474,-0.88591 -13.98382,-1.93356 -21.20301,-3.1484 -7.21929,-1.21481 -14.59008,-2.59914 -22.11721,-4.164 -7.52714,-1.56483 -15.20832,-3.30609 -23.04686,-5.2421 -7.83853,-1.93602 -15.8388,-4.06222 -23.99222,-6.39055 -8.15333,-2.32833 -16.45797,-4.85965 -24.92964,-7.60146 -8.47169,-2.74181 -16.81134,-5.20464 -25.00773,-7.40613 -8.19647,-2.20149 -16.25006,-4.14533 -24.17188,-5.83586 -7.92192,-1.69054 -15.71136,-3.12699 -23.35936,-4.33586 -7.64802,-1.20891 -15.15642,-2.18871 -22.53125,-2.94529 -7.37488,-0.75655 -14.61634,-1.29135 -21.7187,-1.62497 -7.10236,-0.33372 -14.06791,-0.46627 -20.89841,-0.40621 z" />
        <path
           id="path31-1"
           style="fill:#ffffff;fill-opacity:1;stroke-width:25.9564"
           d="M 98.272021,148.84578 196.429,203.65165 h 201.74624 v 29.50881 H 249.3034 l 98.1573,54.80588 h 50.71485 v 28.31503 l 54.8059,30.59526 V 198.31326 h 0.0136 v -49.46748 z m -9.268452,25.40439 -0.01361,198.03085 H 443.71263 l -98.17039,-54.80589 h -18.97951 -0.0136 -182.73995 V 204.84545 Z" />
      </g>
    </g>
  </g>
</svg>
