<?xml version="1.0" encoding="UTF-8" standalone="no"?>
<svg
   xmlns:dc="http://purl.org/dc/elements/1.1/"
   xmlns:cc="http://creativecommons.org/ns#"
   xmlns:rdf="http://www.w3.org/1999/02/22-rdf-syntax-ns#"
   xmlns:svg="http://www.w3.org/2000/svg"
   xmlns="http://www.w3.org/2000/svg"
   xmlns:sodipodi="http://sodipodi.sourceforge.net/DTD/sodipodi-0.dtd"
   xmlns:inkscape="http://www.inkscape.org/namespaces/inkscape"
   sodipodi:docname="brand.svg"
   inkscape:version="1.0.1 (unknown)"
   width="130"
   height="130"
   viewBox="0 0 130 130"
   version="1.1"
   id="SVGRoot">
  <defs
     id="defs386" />
  <sodipodi:namedview
     borderlayer="true"
     inkscape:window-maximized="1"
     inkscape:window-y="0"
     inkscape:window-x="0"
     inkscape:window-height="703"
     inkscape:window-width="1366"
     showgrid="false"
     inkscape:document-rotation="0"
     inkscape:current-layer="g864"
     inkscape:document-units="px"
     inkscape:cy="65"
     inkscape:cx="65"
     inkscape:zoom="4.2615385"
     inkscape:pageshadow="2"
     inkscape:pageopacity="0.0"
     borderopacity="1.0"
     bordercolor="#666666"
     pagecolor="#ffffff"
     id="base"
     inkscape:snap-global="false"
     inkscape:pagecheckerboard="true"
     inkscape:snap-page="true" />
  <metadata
     id="metadata389">
    <rdf:RDF>
      <cc:Work
         rdf:about="">
        <dc:format>image/svg+xml</dc:format>
        <dc:type
           rdf:resource="http://purl.org/dc/dcmitype/StillImage" />
        <dc:title></dc:title>
      </cc:Work>
    </rdf:RDF>
  </metadata>
  <g
     id="layer1"
     inkscape:groupmode="layer"
     inkscape:label="Layer 1">
    <g
       id="g864">
      <path
         id="path851"
         style="font-style:normal;font-variant:normal;font-weight:normal;font-stretch:normal;font-size:113.151px;line-height:1.25;font-family:Allan;-inkscape-font-specification:'Allan, Normal';font-variant-ligatures:normal;font-variant-caps:normal;font-variant-numeric:normal;font-variant-east-asian:normal;fill:#ffffff;fill-opacity:1;stroke:none;stroke-width:1.05785"
         d="M 18.952958,1.7857233e-6 C 18.035294,1.7857233e-6 17.464864,0.42129219 17.240129,1.2640442 L 7.3800722,39.891673 c -0.112374,0.486932 -0.05743,0.908223 0.167299,1.264043 0.206011,0.337109 0.53308,0.50456 0.982554,0.504554 H 24.261402 c 1.030038,6e-6 1.639737,-0.400319 1.827019,-1.205619 l 0.393022,-1.433998 c 0.09362,-0.355828 0.057,-0.664597 -0.111532,-0.926786 -0.149834,-0.262187 -0.393168,-0.393022 -0.730277,-0.393022 H 12.632751 L 21.762532,1.7978096 C 21.893629,1.2921562 21.846531,0.87086719 21.621788,0.53376849 21.415782,0.17793389 21.088698,1.7857233e-6 20.639235,1.7857233e-6 Z M 118.25725,2.2465973 c -0.91767,0 -1.48809,0.423939 -1.71283,1.2666982 l -2.30502,8.9332695 h -2.30235 c -0.61804,0 -1.03932,0.363697 -1.26406,1.094086 l -0.44878,1.545529 c -0.28092,0.917667 -0.0376,1.375576 0.73028,1.375576 h 2.30236 l -5.98296,23.34494 c -0.11237,0.54311 -0.0469,0.993197 0.19652,1.34902 0.2622,0.337107 0.70177,0.504554 1.31981,0.504554 h 1.06752 c 0.9364,6e-6 1.51731,-0.421288 1.74204,-1.264042 l 6.09714,-23.934472 h 2.97688 c 0.73039,0 1.2354,-0.421282 1.51632,-1.264041 l 0.39302,-1.487108 c 0.2622,-0.842755 -0.0283,-1.264042 -0.87102,-1.264042 h -2.97688 l 2.24661,-8.8775045 c 0.22473,-0.8802098 -0.19655,-1.3224632 -1.26404,-1.3224632 z m -12.69619,1.4339982 c -0.8053,0 -1.48042,0.282627 -2.02352,0.844464 -0.52439,0.561841 -0.78605,1.21599 -0.78605,1.965108 0,0.749115 0.25383,1.40327 0.75949,1.965106 0.52438,0.543109 1.11312,0.815254 1.7686,0.815254 h 0.44879 c 0.84275,0 1.54667,-0.261666 2.1085,-0.786042 0.56183,-0.543108 0.84181,-1.18944 0.84181,-1.938553 0,-0.749116 -0.27215,-1.413752 -0.81525,-1.994317 -0.54312,-0.580564 -1.13185,-0.87102 -1.7686,-0.87102 z M 48.618109,12.191632 47.2983,12.250052 c -0.730392,0 -1.172638,0.447427 -1.322465,1.346364 -1.161129,-0.692931 -2.37788,-1.038321 -3.65138,-1.03832 -2.284803,-0.03745 -4.184507,0.729218 -5.701467,2.302362 -1.516962,1.573142 -2.995376,4.354696 -4.437424,8.343739 -1.442048,3.989039 -2.323896,7.097678 -2.642272,9.32629 -0.299647,2.209899 -0.317939,3.735414 -0.05577,4.578169 0.280916,0.842761 0.730995,1.619913 1.34902,2.331572 0.618022,0.711657 1.235559,1.292573 1.853574,1.742042 0.636753,0.43074 1.112965,0.647953 1.431341,0.647953 h 0.114182 c 0.412018,0 1.000751,-0.261659 1.768597,-0.786043 0.767842,-0.543104 1.696796,-1.526993 2.783016,-2.950314 l 1.067531,3.173381 c 0.168551,0.486923 0.513941,0.693652 1.03832,0.618743 1.816605,-0.412019 3.378742,-1.123753 4.689701,-2.135062 1.329681,-1.030039 2.781964,-2.464006 4.355102,-4.299336 0.412017,-0.543116 0.3178,-1.019328 -0.281488,-1.431341 l -1.40213,-0.926787 c -0.524382,-0.355831 -1.003253,-0.224999 -1.433998,0.393022 -1.179859,1.648059 -2.370476,2.911916 -3.569059,3.792125 l 6.912397,-23.007686 c 0.374557,-1.348404 -0.140925,-2.041837 -1.545529,-2.079295 z m 9.971589,0.254933 c -0.580565,0 -0.962577,0.494533 -1.149853,1.487107 l -6.968163,26.239489 c -0.112374,0.374555 -0.08357,0.719945 0.08498,1.038321 0.149835,0.299645 0.335587,0.448794 0.560321,0.448788 h 1.601298 c 0.618026,0 1.078586,-0.269489 1.37823,-0.812598 1.236042,-2.266076 3.331994,-5.657325 6.290998,-10.170757 1.57315,-2.453354 2.876279,-4.512682 3.906314,-6.179464 1.030037,-1.666787 1.909225,-3.024853 2.639616,-4.073614 0.61802,-0.917664 1.104726,-1.545678 1.460553,-1.882785 0.374558,-0.355831 0.693809,-0.533766 0.955998,-0.533766 0.262194,0 0.393021,0.170111 0.393021,0.50721 0,0.318374 -0.149149,0.990834 -0.448787,2.020874 l -6.041377,19.749326 c -0.262187,0.917668 -0.11039,1.375574 0.451443,1.375574 h 3.006082 c 0.505658,0 0.814427,-0.269489 0.926788,-0.812598 l 6.431742,-23.459128 c 0.430741,-1.423325 0.53278,-2.498759 0.308044,-3.229149 -0.206009,-0.730387 -0.485983,-1.198776 -0.841811,-1.404786 -0.337105,-0.206008 -0.813321,-0.308044 -1.431343,-0.308044 h -1.208273 c -0.955121,0 -2.106455,0.523322 -3.454872,1.572085 -1.329677,1.048766 -2.632815,2.613564 -3.906314,4.692357 l -5.982954,9.886612 4.325891,-14.493992 c 0.299646,-1.104948 -0.0091,-1.657062 -0.926787,-1.657062 z m 36.181864,0 -1.965101,0.05577 c -0.58056,0 -0.983542,0.382012 -1.208276,1.149853 -1.17986,-0.730387 -2.407097,-1.094085 -3.680592,-1.094085 -2.30353,0 -4.21372,0.766673 -5.730677,2.302361 -1.516959,1.535691 -2.977062,4.251818 -4.381657,8.147226 -1.38586,3.876672 -2.257233,6.966992 -2.613062,9.270526 -0.337103,2.30353 -0.384193,3.876161 -0.140745,4.718912 0.262195,0.84276 0.693959,1.640883 1.293253,2.389995 0.618021,0.749119 1.253861,1.345684 1.909341,1.795153 0.655475,0.430742 1.134351,0.647953 1.433997,0.647953 h 0.11153 c 0.65547,0 1.498047,-0.478877 2.528084,-1.433997 1.048765,-0.955124 1.996034,-2.143084 2.838782,-3.566403 l -2.753804,10.056567 c -0.393292,1.423317 -1.029138,1.946645 -1.909341,1.572086 l -6.378631,-3.93287 c -0.655479,-0.374557 -1.291321,-0.214927 -1.90934,0.478 l -0.87102,1.208275 c -0.599295,0.917669 -0.439673,1.611096 0.477998,2.079296 l 5.871421,3.314126 c 1.217311,0.692934 2.1253,1.020012 2.724595,0.982553 0.599294,-0.03749 1.431383,-0.382846 2.498871,-1.038319 2.041346,-1.104944 3.559033,-3.446899 4.551615,-7.023931 4.756885,-16.873843 7.575059,-27.071084 8.455269,-30.591936 0.18727,-1.030033 -0.19739,-1.524564 -1.15251,-1.487107 z m 8.821738,0 c -0.88021,0 -1.41401,0.382013 -1.60129,1.149852 l -7.021278,26.744045 c -0.22473,0.880208 0.19655,1.319808 1.26404,1.319808 h 1.68362 c 0.91767,6e-6 1.49075,-0.421288 1.71549,-1.264042 l 6.965508,-26.744044 c 0.11237,-0.468198 0.0836,-0.78479 -0.085,-0.953343 -0.16856,-0.168551 -0.50346,-0.252276 -1.00911,-0.252276 z M 42.324455,15.92799 c 0.833393,0.0095 1.762344,0.299822 2.783017,0.87102 -1.423323,5.037811 -2.679358,8.923588 -3.765572,11.657866 -1.067491,2.734273 -2.320864,4.887811 -3.762914,6.460952 -1.423319,1.573147 -2.443823,2.201159 -3.061849,1.882786 -0.618018,-0.318374 -0.95558,-0.823381 -1.011763,-1.51632 -0.05619,-0.692932 0.09296,-1.993407 0.448787,-3.903658 0.37456,-1.928974 1.170022,-4.579698 2.387339,-7.950717 1.236039,-3.371022 2.492077,-5.600459 3.765569,-6.686675 0.646113,-0.552478 1.383993,-0.824621 2.217386,-0.815254 z m 45.712636,0.01332 c 0.80062,0.03749 1.67918,0.324001 2.634306,0.857742 l -0.169955,0.533766 c -1.254767,4.550883 -2.406098,8.175002 -3.45487,10.871822 -1.030032,2.67809 -2.283416,4.860421 -3.762914,6.54593 -1.479506,1.685512 -2.536632,2.36846 -3.173383,2.050085 -0.61802,-0.318373 -0.955579,-0.823382 -1.011763,-1.516319 -0.05619,-0.692932 0.09296,-2.014375 0.448787,-3.96208 0.37456,-1.966427 1.198818,-4.679911 2.472316,-8.144573 1.292227,-3.483391 2.574398,-5.684028 3.847892,-6.601697 0.646113,-0.458832 1.368967,-0.672135 2.169584,-0.634676 z m -53.52792,38.76572 c -0.917671,-1e-6 -1.488096,0.421288 -1.71283,1.264041 L 22.261774,96.505389 c -0.299646,1.23604 0.26295,1.85623 1.686275,1.85623 h 0.955997 c 0.936394,0 1.517311,-0.42128 1.742042,-1.26404 l 3.284914,-12.839585 3.736359,12.839585 c 0.149816,0.5431 0.327755,0.88849 0.533766,1.03832 0.206004,0.14982 0.598499,0.22572 1.179064,0.22572 h 1.545529 c 1.161131,0 1.564101,-0.51549 1.208276,-1.54553 L 33.667361,82.76823 43.55663,71.139577 c 0.449467,-0.486927 0.653546,-0.937005 0.616088,-1.349018 -0.03749,-0.430743 -0.354057,-0.6453 -0.953343,-0.6453 h -2.135062 c -0.730392,0 -1.245879,0.206729 -1.54553,0.618742 l -8.707549,10.92759 6.290998,-24.664749 c 0.224739,-0.880213 -0.204381,-1.319811 -1.290598,-1.319808 z m 29.357106,2.161617 c -2.220516,0.496661 -3.112065,3.165443 -2.416551,5.04289 l 31.547933,1.06753 -35.446282,64.548453 c 0.721489,1.82078 2.598763,2.62608 4.456014,2.44842 L 99.442682,61.807928 c 0.911508,-1.659936 -0.24782,-3.698876 -2.14038,-3.765571 z m -8.388883,12.414697 c -0.547792,0.0087 -1.085198,0.09341 -1.611919,0.254933 -1.385867,0.412012 -2.547691,1.047854 -3.484082,1.90934 -2.678094,2.56572 -4.766208,6.367777 -6.264443,11.405587 -1.498232,5.037795 -1.974448,8.999489 -1.43134,11.883595 0.468199,2.15371 2.059129,3.57719 4.774678,4.27012 1.198582,0.22474 2.781696,-0.4399 4.748123,-1.99432 1.966428,-1.55441 3.314019,-3.025 4.044403,-4.410871 0.168552,-0.44947 0.0011,-0.87076 -0.504555,-1.264041 L 54.651518,90.66313 c -0.412011,-0.243457 -0.794021,-0.206842 -1.149854,0.111532 -2.078801,2.340982 -3.821532,3.774957 -5.226122,4.299337 -1.57315,-0.29964 -2.099122,-1.853965 -1.574741,-4.663148 3.876676,-1.367138 7.155404,-3.418636 9.833502,-6.152909 2.696799,-2.753001 4.054868,-5.673207 4.073612,-8.763315 0.01875,-3.090105 -0.750599,-4.963674 -2.305016,-5.619143 -0.971517,-0.409675 -1.912521,-0.606817 -2.825505,-0.592188 z m -0.377088,4.047058 c 0.898939,0 1.349018,0.777157 1.349019,2.331573 0,1.554417 -0.42128,3.07211 -1.264042,4.551612 -0.824023,1.479503 -1.881161,2.732877 -3.173382,3.762915 -1.273498,1.03004 -2.809505,1.930192 -4.607379,2.698038 0.730385,-3.146288 1.750898,-6.15288 3.061849,-9.018247 1.329683,-2.884096 2.873514,-4.325891 4.633935,-4.325891 z" />
    </g>
  </g>
</svg>
