<?xml version="1.0" encoding="UTF-8"?>
<svg width="128.55mm" height="128.55mm" version="1.1" viewBox="0 0 128.55 128.55" xmlns="http://www.w3.org/2000/svg" xmlns:cc="http://creativecommons.org/ns#" xmlns:dc="http://purl.org/dc/elements/1.1/" xmlns:rdf="http://www.w3.org/1999/02/22-rdf-syntax-ns#">
 <metadata>
  <rdf:RDF>
   <cc:Work rdf:about="">
    <dc:format>image/svg+xml</dc:format>
    <dc:type rdf:resource="http://purl.org/dc/dcmitype/StillImage"/>
    <dc:title/>
   </cc:Work>
  </rdf:RDF>
 </metadata>
 <g transform="translate(-39.442 -40.638)">
  <g display="none">
   <rect x="36.912" y="37.171" width="142.6" height="143.06" stroke-width=".27813"/>
  </g>
  <g transform="translate(1.0583 1.8519)">
   <path d="m63.246 40.052c-13.073 0-23.597 10.524-23.597 23.597v78.825c0 13.073 10.524 23.597 23.597 23.597h34.743l44.659-81.325-69.42-2.3493c-1.5305-4.1312 0.43109-10.004 5.3172-11.096l73.575 2.5824c4.1645 0.14675 6.7158 4.6336 4.7101 8.2862l-46.076 83.902h31.316c8.4322 0 15.784-4.3925 19.955-11.009 2.2954-3.6414 3.6414-7.9468 3.6414-12.587v-78.825c0-13.073-10.524-23.597-23.597-23.597z" fill="#fff" fill-rule="evenodd" stop-color="#000000" stroke-width=".20088px" style="paint-order:stroke fill markers"/>
  </g>
 </g>
</svg>
